<svg width="69" height="68" viewBox="0 0 69 68" fill="none" xmlns="http://www.w3.org/2000/svg">
<g clip-path="url(#clip0_5_30)">
<path d="M31 24L40.0933 36H21.9067L31 24Z" fill="#FFD645"/>
<path d="M42.5 17L55.4904 36.5H29.5096L42.5 17Z" fill="#FFD645"/>
<path d="M66.5078 47.9453H2.49219C1.39197 47.9453 0.5 48.8373 0.5 49.9375V66.0078C0.5 67.108 1.39197 68 2.49219 68H66.5078C67.608 68 68.5 67.108 68.5 66.0078V49.9375C68.5 48.8373 67.608 47.9453 66.5078 47.9453ZM64.5156 64.0156H60.3984V57.9062C60.3984 56.806 59.5065 55.9141 58.4062 55.9141C57.306 55.9141 56.4141 56.806 56.4141 57.9062V64.0156H52.4297V61.8906C52.4297 60.7904 51.5377 59.8984 50.4375 59.8984C49.3373 59.8984 48.4453 60.7904 48.4453 61.8906V64.0156H44.4609V57.9062C44.4609 56.806 43.569 55.9141 42.4688 55.9141C41.3685 55.9141 40.4766 56.806 40.4766 57.9062V64.0156H36.4922V61.8906C36.4922 60.7904 35.6002 59.8984 34.5 59.8984C33.3998 59.8984 32.5078 60.7904 32.5078 61.8906V64.0156H28.5234V57.9062C28.5234 56.806 27.6315 55.9141 26.5312 55.9141C25.431 55.9141 24.5391 56.806 24.5391 57.9062V64.0156H20.5547V61.8906C20.5547 60.7904 19.6627 59.8984 18.5625 59.8984C17.4623 59.8984 16.5703 60.7904 16.5703 61.8906V64.0156H12.5859V57.9062C12.5859 56.806 11.694 55.9141 10.5938 55.9141C9.49353 55.9141 8.60156 56.806 8.60156 57.9062V64.0156H4.48438V51.9297H64.5156V64.0156Z" fill="black"/>
<path d="M66.5078 12.0859C67.608 12.0859 68.5 11.194 68.5 10.0938V1.99219C68.5 0.891969 67.608 0 66.5078 0H58.4062C57.306 0 56.4141 0.891969 56.4141 1.99219V3.98438H12.5859V1.99219C12.5859 0.891969 11.694 0 10.5938 0H2.49219C1.39197 0 0.5 0.891969 0.5 1.99219V10.0938C0.5 11.194 1.39197 12.0859 2.49219 12.0859H4.48438V32.0078H2.49219C1.39197 32.0078 0.5 32.8998 0.5 34V41.9688C0.5 43.069 1.39197 43.9609 2.49219 43.9609H10.5938C11.694 43.9609 12.5859 43.069 12.5859 41.9688V39.9766C14.1386 39.9766 54.9444 39.9766 56.4141 39.9766V41.9688C56.4141 43.069 57.306 43.9609 58.4062 43.9609H66.5078C67.608 43.9609 68.5 43.069 68.5 41.9688V34C68.5 32.8998 67.608 32.0078 66.5078 32.0078H64.5156V12.0859H66.5078ZM4.48438 3.98438H8.60156V8.10156H4.48438V3.98438ZM8.60156 39.9766H4.48438V35.9922H8.60156V39.9766ZM22.5469 35.9922L30.5156 25.3672L38.4844 35.9922H22.5469ZM43.4648 35.9922L36.4707 26.6668L42.4688 17.6696L54.6838 35.9922H43.4648ZM57.1269 32.4739L44.1264 12.973C43.3403 11.794 41.6003 11.7892 40.8111 12.973L33.9355 23.2864L32.1094 20.8516C31.3124 19.7889 29.7173 19.7911 28.9219 20.8516L17.5664 35.9922H12.5859V34C12.5859 32.8998 11.694 32.0078 10.5938 32.0078H8.46875V12.0859H10.5938C11.694 12.0859 12.5859 11.194 12.5859 10.0938V7.96875H56.4141V10.0938C56.4141 11.194 57.306 12.0859 58.4062 12.0859H60.5312V32.0078H58.4062C57.919 32.0078 57.4731 32.1833 57.1269 32.4739ZM64.5156 39.9766H60.3984V35.9922H64.5156V39.9766ZM60.3984 8.10156V3.98438H64.5156V8.10156H60.3984Z" fill="black"/>
<path d="M18.5625 12.0859C15.267 12.0859 12.5859 14.767 12.5859 18.0625C12.5859 21.358 15.267 24.0391 18.5625 24.0391C21.858 24.0391 24.5391 21.358 24.5391 18.0625C24.5391 14.767 21.858 12.0859 18.5625 12.0859ZM18.5625 20.0547C17.464 20.0547 16.5703 19.161 16.5703 18.0625C16.5703 16.964 17.464 16.0703 18.5625 16.0703C19.661 16.0703 20.5547 16.964 20.5547 18.0625C20.5547 19.161 19.661 20.0547 18.5625 20.0547Z" fill="black"/>
</g>
<defs>
<clipPath id="clip0_5_30">
<rect width="68" height="68" fill="white" transform="translate(0.5)"/>
</clipPath>
</defs>
</svg>
