<svg width="69" height="68" viewBox="0 0 69 68" fill="none" xmlns="http://www.w3.org/2000/svg">
<g clip-path="url(#clip0_5_83)">
<path d="M25 22.5L18.5 26.5V35.5L20 37L25 34" stroke="black"/>
<path d="M24.5 22.5L25 34L23 35L18.5 37.5L18 35L18.5 26.5L24.5 22.5Z" fill="#FFD645" stroke="black"/>
<path d="M26.5 31.5L28 12.5L34 2L37.5 4L44.5 21.5L49.5 27.5V38L44.5 35H39L42.5 45H26.5L29.5 35L26.5 31.5Z" fill="#FFD645" stroke="black"/>
<path d="M62.5234 7.96917H41.4753C41.4096 7.96917 41.3446 7.97276 41.2805 7.979C39.8922 5.24798 38.0922 2.76744 35.9087 0.584C35.1309 -0.194016 33.8694 -0.194016 33.0914 0.584C30.908 2.76744 29.1079 5.24811 27.7197 7.97913C27.6554 7.97276 27.5904 7.96917 27.5247 7.96917H6.47656C3.18109 7.96917 0.5 10.6504 0.5 13.9457V49.8051C0.5 53.1006 3.18109 55.7817 6.47656 55.7817H23.7863L21.1012 64.0161H18.5625C17.4623 64.0161 16.5703 64.908 16.5703 66.0082C16.5703 67.1085 17.4623 68.0004 18.5625 68.0004C18.8644 68.0004 50.1526 68.0004 50.4375 68.0004C51.5377 68.0004 52.4297 67.1085 52.4297 66.0082C52.4297 64.908 51.5377 64.0161 50.4375 64.0161H47.8989L45.2139 55.7817H62.5234C65.8189 55.7817 68.5 53.1006 68.5 49.8051V13.9457C68.5 10.6504 65.8189 7.96917 62.5234 7.96917ZM34.5 4.92843C36.1119 6.82433 37.4171 8.92316 38.3926 11.1628C37.1693 11.6821 35.8482 11.9535 34.5 11.9535C33.1518 11.9535 31.8307 11.6821 30.6074 11.1626C31.5829 8.92316 32.8881 6.82446 34.5 4.92843ZM28.5234 21.9146C28.5234 19.721 28.6139 17.6679 29.3119 14.9386C30.9516 15.5957 32.7094 15.9379 34.5 15.9379C36.2906 15.9379 38.0484 15.5957 39.6881 14.9385C40.378 17.6363 40.4766 19.6965 40.4766 21.9146V31.8756C39.2668 31.8756 30.4717 31.8756 28.5234 31.8756V21.9146ZM39.7048 43.8286H29.2953L31.9516 35.8598H37.0485L39.7048 43.8286ZM4.48438 13.9457C4.48438 12.8472 5.37807 11.9535 6.47656 11.9535H26.0525C25.1658 14.5931 24.667 17.3282 24.562 20.1186C20.0096 21.0354 16.5703 25.0648 16.5703 29.8834V37.8521C16.5703 38.5426 16.9278 39.1838 17.5151 39.5468C18.1036 39.9106 18.8372 39.9422 19.4534 39.6341L27.0015 35.8598H27.7515L25.0953 43.8286H4.48438V13.9457ZM24.5391 24.2481V32.6364L20.5547 34.6288V29.8834C20.5547 27.286 22.22 25.0702 24.5391 24.2481ZM25.292 64.0161L27.9772 55.7817H41.0231L43.7082 64.0161H25.292ZM64.5156 49.8051C64.5156 50.9036 63.6219 51.7973 62.5234 51.7973C61.904 51.7973 6.79173 51.7973 6.47656 51.7973C5.37807 51.7973 4.48438 50.9036 4.48438 49.8051V47.8129C6.66436 47.8129 62.2099 47.8129 64.5156 47.8129V49.8051ZM64.5156 43.8286H43.9047L41.2485 35.8598H41.9985L49.5466 39.6339C50.1631 39.9422 50.8965 39.9103 51.4849 39.5467C52.0722 39.1837 52.4297 38.5425 52.4297 37.852V29.8832C52.4297 25.0648 48.9904 21.0353 44.438 20.1186C44.3332 17.3281 43.8342 14.5931 42.9475 11.9535H62.5234C63.6219 11.9535 64.5156 12.8472 64.5156 13.9457V43.8286ZM44.4609 32.6364V24.2481C46.78 25.0704 48.4453 27.2861 48.4453 29.8834V34.6286L44.4609 32.6364Z" fill="black"/>
<path d="M34.5 23.9064C35.6003 23.9064 36.4922 23.0144 36.4922 21.9142C36.4922 20.8139 35.6003 19.922 34.5 19.922C33.3997 19.922 32.5078 20.8139 32.5078 21.9142C32.5078 23.0144 33.3997 23.9064 34.5 23.9064Z" fill="black"/>
</g>
<defs>
<clipPath id="clip0_5_83">
<rect width="68" height="68" fill="white" transform="translate(0.5)"/>
</clipPath>
</defs>
</svg>
