<svg width="69" height="68" viewBox="0 0 69 68" fill="none" xmlns="http://www.w3.org/2000/svg">
<g clip-path="url(#clip0_5_105)">
<rect x="46.5" y="27" width="12" height="30" fill="#FFD645"/>
<rect x="11.5" y="43" width="27" height="14" fill="#FFD645"/>
<rect x="11.5" y="27" width="27" height="6" fill="#FFD645"/>
<path d="M62.5234 0H6.47656C3.18109 0 0.5 2.68109 0.5 5.97656V62.0234C0.5 65.3189 3.18109 68 6.47656 68H62.5234C65.8189 68 68.5 65.3189 68.5 62.0234V5.97656C68.5 2.68109 65.8189 0 62.5234 0ZM4.48438 5.97656C4.48438 4.87807 5.37807 3.98438 6.47656 3.98438H16.4375V15.9375H4.48438V5.97656ZM64.5156 62.0234C64.5156 63.1219 63.6219 64.0156 62.5234 64.0156H6.47656C5.37807 64.0156 4.48438 63.1219 4.48438 62.0234V19.9219H64.5156V62.0234ZM64.5156 15.9375H20.4219V3.98438H62.5234C63.6219 3.98438 64.5156 4.87807 64.5156 5.97656V15.9375Z" fill="black"/>
<path d="M58.5391 7.96875H54.5547C53.4545 7.96875 52.5625 8.86072 52.5625 9.96094C52.5625 11.0612 53.4545 11.9531 54.5547 11.9531H58.5391C59.6393 11.9531 60.5312 11.0612 60.5312 9.96094C60.5312 8.86072 59.6393 7.96875 58.5391 7.96875Z" fill="black"/>
<path d="M46.4531 7.96875H42.4688C41.3685 7.96875 40.4766 8.86072 40.4766 9.96094C40.4766 11.0612 41.3685 11.9531 42.4688 11.9531H46.4531C47.5533 11.9531 48.4453 11.0612 48.4453 9.96094C48.4453 8.86072 47.5533 7.96875 46.4531 7.96875Z" fill="black"/>
<path d="M34.5 7.96875H30.5156C29.4154 7.96875 28.5234 8.86072 28.5234 9.96094C28.5234 11.0612 29.4154 11.9531 30.5156 11.9531H34.5C35.6002 11.9531 36.4922 11.0612 36.4922 9.96094C36.4922 8.86072 35.6002 7.96875 34.5 7.96875Z" fill="black"/>
<path d="M38.4844 24.0391H10.4609C9.36072 24.0391 8.46875 24.931 8.46875 26.0312V34C8.46875 35.1002 9.36072 35.9922 10.4609 35.9922H38.4844C39.5846 35.9922 40.4766 35.1002 40.4766 34V26.0312C40.4766 24.931 39.5846 24.0391 38.4844 24.0391ZM36.4922 32.0078H12.4531V28.0234H36.4922V32.0078Z" fill="black"/>
<path d="M58.5391 24.0391H46.4531C45.3529 24.0391 44.4609 24.931 44.4609 26.0312V58.0391C44.4609 59.1393 45.3529 60.0312 46.4531 60.0312H58.5391C59.6393 60.0312 60.5312 59.1393 60.5312 58.0391V26.0312C60.5312 24.931 59.6393 24.0391 58.5391 24.0391ZM56.5469 56.0469H48.4453V28.0234H56.5469V56.0469Z" fill="black"/>
<path d="M38.4844 39.9766H10.4609C9.36072 39.9766 8.46875 40.8685 8.46875 41.9688V58.0391C8.46875 59.1393 9.36072 60.0312 10.4609 60.0312H38.4844C39.5846 60.0312 40.4766 59.1393 40.4766 58.0391V41.9688C40.4766 40.8685 39.5846 39.9766 38.4844 39.9766ZM36.4922 56.0469H12.4531V43.9609H36.4922V56.0469Z" fill="black"/>
</g>
<defs>
<clipPath id="clip0_5_105">
<rect width="68" height="68" fill="white" transform="translate(0.5)"/>
</clipPath>
</defs>
</svg>
