<svg width="41" height="41" viewBox="0 0 41 41" fill="none" xmlns="http://www.w3.org/2000/svg">
<g clip-path="url(#clip0_202_98)">
<path d="M34.436 0.216797H6.07628C2.83641 0.216797 0.200638 2.84528 0.200638 6.07617V34.3574C0.200638 37.5883 2.83641 40.2168 6.07628 40.2168H34.436C37.6759 40.2168 40.3117 37.5883 40.3117 34.3574V6.07617C40.3117 2.84528 37.6759 0.216797 34.436 0.216797ZM37.9614 34.3574C37.9614 36.2959 36.3799 37.873 34.436 37.873H6.07628C4.13242 37.873 2.55089 36.2959 2.55089 34.3574V6.07617C2.55089 4.1377 4.13242 2.56055 6.07628 2.56055H34.436C36.3799 2.56055 37.9614 4.1377 37.9614 6.07617V34.3574Z" fill="#070707" stroke="#070707" stroke-width="0.5"/>
<path d="M19.081 16.7012C19.081 14.1163 16.9725 12.0137 14.3805 12.0137H7.32974V28.4199H14.3805C16.9725 28.4199 19.081 26.3173 19.081 23.7324C19.081 22.3335 18.4626 21.0765 17.4845 20.2168C18.4626 19.3571 19.081 18.1001 19.081 16.7012ZM16.7308 23.7324C16.7308 25.0248 15.6765 26.0762 14.3805 26.0762H9.68V21.3887H14.3805C15.6765 21.3887 16.7308 22.44 16.7308 23.7324ZM9.68 19.0449V14.3574H14.3805C15.6765 14.3574 16.7308 15.4088 16.7308 16.7012C16.7308 17.9936 15.6765 19.0449 14.3805 19.0449H9.68Z" fill="#070707" stroke="#070707" stroke-width="0.5"/>
<path d="M27.3069 16.7012C24.0671 16.7012 21.4313 19.3297 21.4313 22.5605C21.4313 25.7914 24.0671 28.4199 27.3069 28.4199C29.398 28.4199 31.3479 27.2978 32.3958 25.4911L30.3613 24.3174C29.7321 25.4023 28.5616 26.0762 27.3069 26.0762C25.7747 26.0762 24.4679 25.0966 23.9829 23.7324H33.1826V22.5605C33.1826 19.3297 30.5468 16.7012 27.3069 16.7012ZM23.9829 21.3887C24.4679 20.0245 25.7747 19.0449 27.3069 19.0449C28.8392 19.0449 30.1459 20.0245 30.6309 21.3887H23.9829Z" fill="#070707" stroke="#070707" stroke-width="0.5"/>
<path d="M22.6064 12.0137H32.0074V14.3574H22.6064V12.0137Z" fill="#070707" stroke="#070707" stroke-width="0.5"/>
</g>
<defs>
<clipPath id="clip0_202_98">
<rect width="40.111" height="40" fill="white" transform="translate(0.200638 0.216797)"/>
</clipPath>
</defs>
</svg>
