<svg width="40" height="40" viewBox="0 0 40 40" fill="none" xmlns="http://www.w3.org/2000/svg">
<path d="M30.7797 7.11869L31.0854 6.73445L30.7068 6.42181C27.7914 4.01466 24.0887 2.57677 20.0379 2.57677C18.6187 2.57677 17.2428 2.77559 15.94 3.1013L15.2128 3.28309L15.66 3.88464C17.0506 5.75551 19.0483 8.58108 21.4407 13.0064L21.6473 13.3886L22.0545 13.2373C26.5819 11.5563 29.2947 8.98483 30.7797 7.11869ZM13.4794 4.36091L13.2344 4.03813L12.8678 4.21102C8.37169 6.33185 4.96532 10.3827 3.62067 15.3296L3.45459 15.9406L4.08743 15.9605C6.56333 16.0385 12.4815 15.9218 19.0392 14.165L19.6576 13.9993L19.347 13.4394C16.8035 8.85573 14.6646 5.92219 13.4794 4.36091ZM32.9332 8.6199L32.5455 8.15926L32.1639 8.62499C30.5079 10.6462 27.6326 13.2715 23.0802 15.0529L22.574 15.251L22.8137 15.7389C23.7952 17.7371 24.7473 19.8664 25.6149 22.1658L25.7579 22.5447L26.1582 22.4836C29.4515 21.9807 32.4956 21.9807 34.7951 22.1608C35.3541 22.2072 35.7149 22.2593 36.1348 22.3199C36.2233 22.3327 36.3143 22.3459 36.4104 22.3594L36.9225 22.4317L36.9774 21.9175C37.0449 21.2869 37.0837 20.6536 37.0837 19.999C37.0837 15.6455 35.5063 11.677 32.9332 8.6199ZM20.7862 16.2472L20.6011 15.876L20.2021 15.9894C12.4888 18.1807 5.69412 18.1138 3.57807 18.0284L3.09623 18.0089L3.05936 18.4897L3.05678 18.5233C3.02022 18.9999 2.98269 19.4889 2.98269 20.0086C2.98269 25.2424 5.24706 29.9144 8.818 33.1113L9.1908 33.4451L9.52428 33.072C10.4194 32.0707 11.6199 30.7954 13.0796 29.4642L13.0816 29.4624C15.8278 26.9307 19.3613 24.2519 23.2103 23.0831L23.7272 22.9261L23.5308 22.4229C22.6693 20.2152 21.7417 18.163 20.7862 16.2472ZM30.2757 24.1434L30.2703 24.1436C29.2592 24.1924 28.1828 24.2899 27.0884 24.4359L26.4935 24.5152L26.6789 25.0859C27.6027 27.9298 28.3668 30.9423 28.8604 34.0761L28.9847 34.865L29.64 34.4087C32.8261 32.1901 35.2361 28.8931 36.3588 25.0227L36.524 24.4531L35.9347 24.3866C34.4747 24.2217 32.6234 24.0555 30.2757 24.1434ZM24.6197 25.3287L24.4661 24.8753L24.0065 25.009C20.6251 25.9929 17.0882 28.5441 14.4078 31.0044C13.1126 32.183 12.0665 33.3018 11.2271 34.2183L10.8144 34.6688L11.3377 34.9842C13.8832 36.5186 16.8391 37.4213 20.0285 37.4213C22.4221 37.4213 24.6799 36.9156 26.7417 36.0246L27.0898 35.8741L27.0389 35.4984C26.5546 31.9246 25.7004 28.5185 24.6197 25.3287ZM0.983765 19.999C0.983765 9.24581 9.55101 0.5 20.0379 0.5C30.5248 0.5 39.092 9.24581 39.092 19.999C39.092 30.7522 30.5248 39.498 20.0379 39.498C9.55101 39.498 0.983765 30.7522 0.983765 19.999Z" fill="#070707" stroke="#070707"/>
</svg>
