<svg width="41" height="40" viewBox="0 0 41 40" fill="none" xmlns="http://www.w3.org/2000/svg">
<path d="M12.2823 0.50961H12.7823V0.5H28.687C34.6516 0.5 39.5341 5.48469 39.5341 11.612V28.386C39.5341 34.5136 34.6513 39.498 28.6964 39.498H12.2823C6.31635 39.498 1.42582 34.5216 1.42582 28.4052V11.6216C1.42582 5.49485 6.31715 0.50961 12.2823 0.50961ZM3.43415 11.6303V11.6312V28.4149C3.43415 33.401 7.3617 37.4316 12.2823 37.4316H28.6964C33.5996 37.4316 37.5257 33.3995 37.5257 28.3956V11.6216C37.5257 6.6174 33.5993 2.58565 28.687 2.58565H12.2823C7.36949 2.58565 3.44407 6.61773 3.43415 11.6303ZM31.5185 7.6997C31.5185 7.10977 31.9725 6.66168 32.5227 6.66168C33.0728 6.66168 33.5268 7.10977 33.5268 7.6997C33.5268 8.28963 33.0728 8.73772 32.5227 8.73772C31.9725 8.73772 31.5185 8.28963 31.5185 7.6997ZM10.4602 20.0038C10.4602 14.3481 14.9849 9.73772 20.4893 9.73772C25.9938 9.73772 30.5185 14.3481 30.5185 20.0038C30.5185 25.6596 25.9938 30.2699 20.4893 30.2699C14.9849 30.2699 10.4602 25.6596 10.4602 20.0038ZM28.5102 20.0038C28.5102 15.4702 24.95 11.8137 20.4893 11.8137C16.0287 11.8137 12.4685 15.4702 12.4685 20.0038C12.4685 24.5374 16.0287 28.1939 20.4893 28.1939C24.95 28.1939 28.5102 24.5374 28.5102 20.0038Z" fill="#070707" stroke="#070707"/>
</svg>
